<svg width="20" height="20" viewBox="0 0 20 20" fill="none" xmlns="http://www.w3.org/2000/svg">
<path d="M19.3841 11.1807C20.1288 9.51697 16.4471 4.86883 12.9297 2.93232C10.7126 1.43213 8.40245 1.63823 7.93457 2.29693C6.90774 3.7425 11.3347 4.9674 14.2953 6.39678C13.6589 6.67319 13.0591 7.16923 12.7065 7.8036C11.6027 6.59859 9.18013 5.56091 6.33748 6.39678C4.42188 6.96005 2.82987 8.28799 2.21457 10.2937C2.06506 10.2273 1.89953 10.1903 1.72537 10.1903C1.0594 10.1903 0.519531 10.7302 0.519531 11.3962C0.519531 12.0621 1.0594 12.602 1.72537 12.602C1.84881 12.602 2.23477 12.5192 2.23477 12.5192L8.40245 12.5639C5.93586 16.4769 3.98656 17.0489 3.98656 17.7268C3.98656 18.4047 5.8517 18.221 6.55201 17.9683C9.90451 16.7587 13.5053 12.9887 14.1231 11.9035C16.7179 12.2272 18.8985 12.2655 19.3841 11.1807Z" fill="url(#paint0_linear_12614_21962)"/>
<path fill-rule="evenodd" clip-rule="evenodd" d="M14.294 6.40006C14.2941 6.40013 14.2943 6.40021 14.2945 6.40028C14.4317 6.34622 14.4095 6.14354 14.3718 5.98438C14.2852 5.61855 12.7909 4.14293 11.3876 3.48199C9.47551 2.58142 8.0675 2.6278 7.85938 3.04284C8.24884 3.84115 10.0546 4.59066 11.9405 5.37346C12.7451 5.70743 13.5643 6.04745 14.2943 6.39991C14.2942 6.39996 14.2941 6.40001 14.294 6.40006Z" fill="url(#paint1_linear_12614_21962)"/>
<path fill-rule="evenodd" clip-rule="evenodd" d="M11.8691 14.4333C11.4824 14.2855 11.0455 14.15 10.5489 14.0269C11.0784 13.0794 11.1895 11.6767 10.6894 10.7899C9.98761 9.54527 9.10659 8.88281 7.05932 8.88281C5.93332 8.88281 2.90163 9.26209 2.84781 11.7929C2.84216 12.0584 2.84767 12.3018 2.86689 12.5256L8.40299 12.5657C7.65665 13.7497 6.95767 14.6278 6.34572 15.2955C7.08045 15.4838 7.68677 15.6419 8.24342 15.787C8.77163 15.9247 9.25511 16.0507 9.76112 16.1798C10.5244 15.6237 11.242 15.0173 11.8691 14.4333Z" fill="url(#paint2_linear_12614_21962)"/>
<path d="M2.14044 12.263C2.36659 14.1855 3.4592 14.9389 5.69184 15.1619C7.92448 15.3849 9.20516 15.2353 10.9102 15.3904C12.3342 15.52 13.6057 16.2456 14.0773 15.9948C14.5019 15.7692 14.2644 14.9538 13.6963 14.4307C12.96 13.7526 11.941 13.2811 10.1479 13.1138C10.5052 12.1354 10.4051 10.7636 9.85009 10.0172C9.04764 8.93801 7.56647 8.45009 5.69184 8.66327C3.73329 8.88598 1.85661 9.85023 2.14044 12.263Z" fill="url(#paint3_linear_12614_21962)"/>
<defs>
<linearGradient id="paint0_linear_12614_21962" x1="6.11443" y1="9.70738" x2="19.2237" y2="13.4249" gradientUnits="userSpaceOnUse">
<stop stop-color="#8797FF"/>
<stop offset="1" stop-color="#AAA8FF"/>
</linearGradient>
<linearGradient id="paint1_linear_12614_21962" x1="17.0152" y1="9.46126" x2="7.55628" y2="-0.020789" gradientUnits="userSpaceOnUse">
<stop stop-color="#3B22A0"/>
<stop offset="1" stop-color="#5156D8" stop-opacity="0"/>
</linearGradient>
<linearGradient id="paint2_linear_12614_21962" x1="12.1323" y1="14.7636" x2="3.04589" y2="9.5396" gradientUnits="userSpaceOnUse">
<stop stop-color="#3B1E8F"/>
<stop offset="1" stop-color="#6A6FFB" stop-opacity="0"/>
</linearGradient>
<linearGradient id="paint3_linear_12614_21962" x1="6.89681" y1="9.6088" x2="13.0385" y2="17.4125" gradientUnits="userSpaceOnUse">
<stop stop-color="#8898FF"/>
<stop offset="0.983895" stop-color="#5F47F1"/>
</linearGradient>
</defs>
</svg>
